<svg width="1240" height="1753" viewBox="0 0 1240 1753" fill="none" xmlns="http://www.w3.org/2000/svg">
    <rect width="1240" height="1753" fill="white"/>
    <path d="M92.3906 95.4648H85.2305V103H82.9805V85.9375H93.5508V87.7891H85.2305V93.625H92.3906V95.4648ZM98.2617 103H96.0938V90.3203H98.2617V103ZM95.918 86.957C95.918 86.6055 96.0234 86.3086 96.2344 86.0664C96.4531 85.8242 96.7734 85.7031 97.1953 85.7031C97.6172 85.7031 97.9375 85.8242 98.1562 86.0664C98.375 86.3086 98.4844 86.6055 98.4844 86.957C98.4844 87.3086 98.375 87.6016 98.1562 87.8359C97.9375 88.0703 97.6172 88.1875 97.1953 88.1875C96.7734 88.1875 96.4531 88.0703 96.2344 87.8359C96.0234 87.6016 95.918 87.3086 95.918 86.957ZM107.871 92.2656C107.543 92.2109 107.188 92.1836 106.805 92.1836C105.383 92.1836 104.418 92.7891 103.91 94V103H101.742V90.3203H103.852L103.887 91.7852C104.598 90.6523 105.605 90.0859 106.91 90.0859C107.332 90.0859 107.652 90.1406 107.871 90.25V92.2656ZM117.258 99.6367C117.258 99.0508 117.035 98.5977 116.59 98.2773C116.152 97.9492 115.383 97.668 114.281 97.4336C113.188 97.1992 112.316 96.918 111.668 96.5898C111.027 96.2617 110.551 95.8711 110.238 95.418C109.934 94.9648 109.781 94.4258 109.781 93.8008C109.781 92.7617 110.219 91.8828 111.094 91.1641C111.977 90.4453 113.102 90.0859 114.469 90.0859C115.906 90.0859 117.07 90.457 117.961 91.1992C118.859 91.9414 119.309 92.8906 119.309 94.0469H117.129C117.129 93.4531 116.875 92.9414 116.367 92.5117C115.867 92.082 115.234 91.8672 114.469 91.8672C113.68 91.8672 113.062 92.0391 112.617 92.3828C112.172 92.7266 111.949 93.1758 111.949 93.7305C111.949 94.2539 112.156 94.6484 112.57 94.9141C112.984 95.1797 113.73 95.4336 114.809 95.6758C115.895 95.918 116.773 96.207 117.445 96.543C118.117 96.8789 118.613 97.2852 118.934 97.7617C119.262 98.2305 119.426 98.8047 119.426 99.4844C119.426 100.617 118.973 101.527 118.066 102.215C117.16 102.895 115.984 103.234 114.539 103.234C113.523 103.234 112.625 103.055 111.844 102.695C111.062 102.336 110.449 101.836 110.004 101.195C109.566 100.547 109.348 99.8477 109.348 99.0977H111.516C111.555 99.8242 111.844 100.402 112.383 100.832C112.93 101.254 113.648 101.465 114.539 101.465C115.359 101.465 116.016 101.301 116.508 100.973C117.008 100.637 117.258 100.191 117.258 99.6367ZM125.191 87.25V90.3203H127.559V91.9961H125.191V99.8594C125.191 100.367 125.297 100.75 125.508 101.008C125.719 101.258 126.078 101.383 126.586 101.383C126.836 101.383 127.18 101.336 127.617 101.242V103C127.047 103.156 126.492 103.234 125.953 103.234C124.984 103.234 124.254 102.941 123.762 102.355C123.27 101.77 123.023 100.938 123.023 99.8594V91.9961H120.715V90.3203H123.023V87.25H125.191ZM146.766 96.8008C146.766 98.7305 146.324 100.285 145.441 101.465C144.559 102.645 143.363 103.234 141.855 103.234C140.316 103.234 139.105 102.746 138.223 101.77V107.875H136.055V90.3203H138.035L138.141 91.7266C139.023 90.6328 140.25 90.0859 141.82 90.0859C143.344 90.0859 144.547 90.6602 145.43 91.8086C146.32 92.957 146.766 94.5547 146.766 96.6016V96.8008ZM144.598 96.5547C144.598 95.125 144.293 93.9961 143.684 93.168C143.074 92.3398 142.238 91.9258 141.176 91.9258C139.863 91.9258 138.879 92.5078 138.223 93.6719V99.7305C138.871 100.887 139.863 101.465 141.199 101.465C142.238 101.465 143.062 101.055 143.672 100.234C144.289 99.4062 144.598 98.1797 144.598 96.5547ZM157.359 103C157.234 102.75 157.133 102.305 157.055 101.664C156.047 102.711 154.844 103.234 153.445 103.234C152.195 103.234 151.168 102.883 150.363 102.18C149.566 101.469 149.168 100.57 149.168 99.4844C149.168 98.1641 149.668 97.1406 150.668 96.4141C151.676 95.6797 153.09 95.3125 154.91 95.3125H157.02V94.3164C157.02 93.5586 156.793 92.957 156.34 92.5117C155.887 92.0586 155.219 91.832 154.336 91.832C153.562 91.832 152.914 92.0273 152.391 92.418C151.867 92.8086 151.605 93.2812 151.605 93.8359H149.426C149.426 93.2031 149.648 92.5938 150.094 92.0078C150.547 91.4141 151.156 90.9453 151.922 90.6016C152.695 90.2578 153.543 90.0859 154.465 90.0859C155.926 90.0859 157.07 90.4531 157.898 91.1875C158.727 91.9141 159.156 92.918 159.188 94.1992V100.035C159.188 101.199 159.336 102.125 159.633 102.812V103H157.359ZM153.762 101.348C154.441 101.348 155.086 101.172 155.695 100.82C156.305 100.469 156.746 100.012 157.02 99.4492V96.8477H155.32C152.664 96.8477 151.336 97.625 151.336 99.1797C151.336 99.8594 151.562 100.391 152.016 100.773C152.469 101.156 153.051 101.348 153.762 101.348ZM168.715 92.2656C168.387 92.2109 168.031 92.1836 167.648 92.1836C166.227 92.1836 165.262 92.7891 164.754 94V103H162.586V90.3203H164.695L164.73 91.7852C165.441 90.6523 166.449 90.0859 167.754 90.0859C168.176 90.0859 168.496 90.1406 168.715 90.25V92.2656ZM178.078 103C177.953 102.75 177.852 102.305 177.773 101.664C176.766 102.711 175.562 103.234 174.164 103.234C172.914 103.234 171.887 102.883 171.082 102.18C170.285 101.469 169.887 100.57 169.887 99.4844C169.887 98.1641 170.387 97.1406 171.387 96.4141C172.395 95.6797 173.809 95.3125 175.629 95.3125H177.738V94.3164C177.738 93.5586 177.512 92.957 177.059 92.5117C176.605 92.0586 175.938 91.832 175.055 91.832C174.281 91.832 173.633 92.0273 173.109 92.418C172.586 92.8086 172.324 93.2812 172.324 93.8359H170.145C170.145 93.2031 170.367 92.5938 170.812 92.0078C171.266 91.4141 171.875 90.9453 172.641 90.6016C173.414 90.2578 174.262 90.0859 175.184 90.0859C176.645 90.0859 177.789 90.4531 178.617 91.1875C179.445 91.9141 179.875 92.918 179.906 94.1992V100.035C179.906 101.199 180.055 102.125 180.352 102.812V103H178.078ZM174.48 101.348C175.16 101.348 175.805 101.172 176.414 100.82C177.023 100.469 177.465 100.012 177.738 99.4492V96.8477H176.039C173.383 96.8477 172.055 97.625 172.055 99.1797C172.055 99.8594 172.281 100.391 172.734 100.773C173.188 101.156 173.77 101.348 174.48 101.348ZM182.789 96.5547C182.789 94.5781 183.246 93.0078 184.16 91.8438C185.074 90.6719 186.285 90.0859 187.793 90.0859C189.34 90.0859 190.547 90.6328 191.414 91.7266L191.52 90.3203H193.5V102.695C193.5 104.336 193.012 105.629 192.035 106.574C191.066 107.52 189.762 107.992 188.121 107.992C187.207 107.992 186.312 107.797 185.438 107.406C184.562 107.016 183.895 106.48 183.434 105.801L184.559 104.5C185.488 105.648 186.625 106.223 187.969 106.223C189.023 106.223 189.844 105.926 190.43 105.332C191.023 104.738 191.32 103.902 191.32 102.824V101.734C190.453 102.734 189.27 103.234 187.77 103.234C186.285 103.234 185.082 102.637 184.16 101.441C183.246 100.246 182.789 98.6172 182.789 96.5547ZM184.969 96.8008C184.969 98.2305 185.262 99.3555 185.848 100.176C186.434 100.988 187.254 101.395 188.309 101.395C189.676 101.395 190.68 100.773 191.32 99.5312V93.7422C190.656 92.5312 189.66 91.9258 188.332 91.9258C187.277 91.9258 186.453 92.3359 185.859 93.1562C185.266 93.9766 184.969 95.1914 184.969 96.8008ZM202.91 92.2656C202.582 92.2109 202.227 92.1836 201.844 92.1836C200.422 92.1836 199.457 92.7891 198.949 94V103H196.781V90.3203H198.891L198.926 91.7852C199.637 90.6523 200.645 90.0859 201.949 90.0859C202.371 90.0859 202.691 90.1406 202.91 90.25V92.2656ZM212.273 103C212.148 102.75 212.047 102.305 211.969 101.664C210.961 102.711 209.758 103.234 208.359 103.234C207.109 103.234 206.082 102.883 205.277 102.18C204.48 101.469 204.082 100.57 204.082 99.4844C204.082 98.1641 204.582 97.1406 205.582 96.4141C206.59 95.6797 208.004 95.3125 209.824 95.3125H211.934V94.3164C211.934 93.5586 211.707 92.957 211.254 92.5117C210.801 92.0586 210.133 91.832 209.25 91.832C208.477 91.832 207.828 92.0273 207.305 92.418C206.781 92.8086 206.52 93.2812 206.52 93.8359H204.34C204.34 93.2031 204.562 92.5938 205.008 92.0078C205.461 91.4141 206.07 90.9453 206.836 90.6016C207.609 90.2578 208.457 90.0859 209.379 90.0859C210.84 90.0859 211.984 90.4531 212.812 91.1875C213.641 91.9141 214.07 92.918 214.102 94.1992V100.035C214.102 101.199 214.25 102.125 214.547 102.812V103H212.273ZM208.676 101.348C209.355 101.348 210 101.172 210.609 100.82C211.219 100.469 211.66 100.012 211.934 99.4492V96.8477H210.234C207.578 96.8477 206.25 97.625 206.25 99.1797C206.25 99.8594 206.477 100.391 206.93 100.773C207.383 101.156 207.965 101.348 208.676 101.348ZM228.211 96.8008C228.211 98.7305 227.77 100.285 226.887 101.465C226.004 102.645 224.809 103.234 223.301 103.234C221.762 103.234 220.551 102.746 219.668 101.77V107.875H217.5V90.3203H219.48L219.586 91.7266C220.469 90.6328 221.695 90.0859 223.266 90.0859C224.789 90.0859 225.992 90.6602 226.875 91.8086C227.766 92.957 228.211 94.5547 228.211 96.6016V96.8008ZM226.043 96.5547C226.043 95.125 225.738 93.9961 225.129 93.168C224.52 92.3398 223.684 91.9258 222.621 91.9258C221.309 91.9258 220.324 92.5078 219.668 93.6719V99.7305C220.316 100.887 221.309 101.465 222.645 101.465C223.684 101.465 224.508 101.055 225.117 100.234C225.734 99.4062 226.043 98.1797 226.043 96.5547ZM233.145 91.8555C234.105 90.6758 235.355 90.0859 236.895 90.0859C239.574 90.0859 240.926 91.5977 240.949 94.6211V103H238.781V94.6094C238.773 93.6953 238.562 93.0195 238.148 92.582C237.742 92.1445 237.105 91.9258 236.238 91.9258C235.535 91.9258 234.918 92.1133 234.387 92.4883C233.855 92.8633 233.441 93.3555 233.145 93.9648V103H230.977V85H233.145V91.8555ZM257.051 103H254.871V88.5508L250.5 90.1562V88.1875L256.711 85.8555H257.051V103ZM274.582 103H263.402V101.441L269.309 94.8789C270.184 93.8867 270.785 93.082 271.113 92.4648C271.449 91.8398 271.617 91.1953 271.617 90.5312C271.617 89.6406 271.348 88.9102 270.809 88.3398C270.27 87.7695 269.551 87.4844 268.652 87.4844C267.574 87.4844 266.734 87.793 266.133 88.4102C265.539 89.0195 265.242 89.8711 265.242 90.9648H263.074C263.074 89.3945 263.578 88.125 264.586 87.1562C265.602 86.1875 266.957 85.7031 268.652 85.7031C270.238 85.7031 271.492 86.1211 272.414 86.957C273.336 87.7852 273.797 88.8906 273.797 90.2734C273.797 91.9531 272.727 93.9531 270.586 96.2734L266.016 101.23H274.582V103ZM280.031 93.4141H281.66C282.684 93.3984 283.488 93.1289 284.074 92.6055C284.66 92.082 284.953 91.375 284.953 90.4844C284.953 88.4844 283.957 87.4844 281.965 87.4844C281.027 87.4844 280.277 87.7539 279.715 88.293C279.16 88.8242 278.883 89.5312 278.883 90.4141H276.715C276.715 89.0625 277.207 87.9414 278.191 87.0508C279.184 86.1523 280.441 85.7031 281.965 85.7031C283.574 85.7031 284.836 86.1289 285.75 86.9805C286.664 87.832 287.121 89.0156 287.121 90.5312C287.121 91.2734 286.879 91.9922 286.395 92.6875C285.918 93.3828 285.266 93.9023 284.438 94.2461C285.375 94.543 286.098 95.0352 286.605 95.7227C287.121 96.4102 287.379 97.25 287.379 98.2422C287.379 99.7734 286.879 100.988 285.879 101.887C284.879 102.785 283.578 103.234 281.977 103.234C280.375 103.234 279.07 102.801 278.062 101.934C277.062 101.066 276.562 99.9219 276.562 98.5H278.742C278.742 99.3984 279.035 100.117 279.621 100.656C280.207 101.195 280.992 101.465 281.977 101.465C283.023 101.465 283.824 101.191 284.379 100.645C284.934 100.098 285.211 99.3125 285.211 98.2891C285.211 97.2969 284.906 96.5352 284.297 96.0039C283.688 95.4727 282.809 95.1992 281.66 95.1836H280.031V93.4141ZM92.4023 126.547H85.2539L83.6484 131H81.3281L87.8438 113.938H89.8125L96.3398 131H94.0312L92.4023 126.547ZM85.9336 124.695H91.7344L88.8281 116.715L85.9336 124.695ZM100.348 118.32L100.418 119.914C101.387 118.695 102.652 118.086 104.215 118.086C106.895 118.086 108.246 119.598 108.27 122.621V131H106.102V122.609C106.094 121.695 105.883 121.02 105.469 120.582C105.062 120.145 104.426 119.926 103.559 119.926C102.855 119.926 102.238 120.113 101.707 120.488C101.176 120.863 100.762 121.355 100.465 121.965V131H98.2969V118.32H100.348ZM110.965 124.543C110.965 123.301 111.207 122.184 111.691 121.191C112.184 120.199 112.863 119.434 113.73 118.895C114.605 118.355 115.602 118.086 116.719 118.086C118.445 118.086 119.84 118.684 120.902 119.879C121.973 121.074 122.508 122.664 122.508 124.648V124.801C122.508 126.035 122.27 127.145 121.793 128.129C121.324 129.105 120.648 129.867 119.766 130.414C118.891 130.961 117.883 131.234 116.742 131.234C115.023 131.234 113.629 130.637 112.559 129.441C111.496 128.246 110.965 126.664 110.965 124.695V124.543ZM113.145 124.801C113.145 126.207 113.469 127.336 114.117 128.188C114.773 129.039 115.648 129.465 116.742 129.465C117.844 129.465 118.719 129.035 119.367 128.176C120.016 127.309 120.34 126.098 120.34 124.543C120.34 123.152 120.008 122.027 119.344 121.168C118.688 120.301 117.812 119.867 116.719 119.867C115.648 119.867 114.785 120.293 114.129 121.145C113.473 121.996 113.145 123.215 113.145 124.801ZM128.168 115.25V118.32H130.535V119.996H128.168V127.859C128.168 128.367 128.273 128.75 128.484 129.008C128.695 129.258 129.055 129.383 129.562 129.383C129.812 129.383 130.156 129.336 130.594 129.242V131C130.023 131.156 129.469 131.234 128.93 131.234C127.961 131.234 127.23 130.941 126.738 130.355C126.246 129.77 126 128.938 126 127.859V119.996H123.691V118.32H126V115.25H128.168ZM135.246 119.855C136.207 118.676 137.457 118.086 138.996 118.086C141.676 118.086 143.027 119.598 143.051 122.621V131H140.883V122.609C140.875 121.695 140.664 121.02 140.25 120.582C139.844 120.145 139.207 119.926 138.34 119.926C137.637 119.926 137.02 120.113 136.488 120.488C135.957 120.863 135.543 121.355 135.246 121.965V131H133.078V113H135.246V119.855ZM151.559 131.234C149.84 131.234 148.441 130.672 147.363 129.547C146.285 128.414 145.746 126.902 145.746 125.012V124.613C145.746 123.355 145.984 122.234 146.461 121.25C146.945 120.258 147.617 119.484 148.477 118.93C149.344 118.367 150.281 118.086 151.289 118.086C152.938 118.086 154.219 118.629 155.133 119.715C156.047 120.801 156.504 122.355 156.504 124.379V125.281H147.914C147.945 126.531 148.309 127.543 149.004 128.316C149.707 129.082 150.598 129.465 151.676 129.465C152.441 129.465 153.09 129.309 153.621 128.996C154.152 128.684 154.617 128.27 155.016 127.754L156.34 128.785C155.277 130.418 153.684 131.234 151.559 131.234ZM151.289 119.867C150.414 119.867 149.68 120.188 149.086 120.828C148.492 121.461 148.125 122.352 147.984 123.5H154.336V123.336C154.273 122.234 153.977 121.383 153.445 120.781C152.914 120.172 152.195 119.867 151.289 119.867ZM165.152 120.266C164.824 120.211 164.469 120.184 164.086 120.184C162.664 120.184 161.699 120.789 161.191 122V131H159.023V118.32H161.133L161.168 119.785C161.879 118.652 162.887 118.086 164.191 118.086C164.613 118.086 164.934 118.141 165.152 118.25V120.266ZM183.82 124.801C183.82 126.73 183.379 128.285 182.496 129.465C181.613 130.645 180.418 131.234 178.91 131.234C177.371 131.234 176.16 130.746 175.277 129.77V135.875H173.109V118.32H175.09L175.195 119.727C176.078 118.633 177.305 118.086 178.875 118.086C180.398 118.086 181.602 118.66 182.484 119.809C183.375 120.957 183.82 122.555 183.82 124.602V124.801ZM181.652 124.555C181.652 123.125 181.348 121.996 180.738 121.168C180.129 120.34 179.293 119.926 178.23 119.926C176.918 119.926 175.934 120.508 175.277 121.672V127.73C175.926 128.887 176.918 129.465 178.254 129.465C179.293 129.465 180.117 129.055 180.727 128.234C181.344 127.406 181.652 126.18 181.652 124.555ZM194.414 131C194.289 130.75 194.188 130.305 194.109 129.664C193.102 130.711 191.898 131.234 190.5 131.234C189.25 131.234 188.223 130.883 187.418 130.18C186.621 129.469 186.223 128.57 186.223 127.484C186.223 126.164 186.723 125.141 187.723 124.414C188.73 123.68 190.145 123.312 191.965 123.312H194.074V122.316C194.074 121.559 193.848 120.957 193.395 120.512C192.941 120.059 192.273 119.832 191.391 119.832C190.617 119.832 189.969 120.027 189.445 120.418C188.922 120.809 188.66 121.281 188.66 121.836H186.48C186.48 121.203 186.703 120.594 187.148 120.008C187.602 119.414 188.211 118.945 188.977 118.602C189.75 118.258 190.598 118.086 191.52 118.086C192.98 118.086 194.125 118.453 194.953 119.188C195.781 119.914 196.211 120.918 196.242 122.199V128.035C196.242 129.199 196.391 130.125 196.688 130.812V131H194.414ZM190.816 129.348C191.496 129.348 192.141 129.172 192.75 128.82C193.359 128.469 193.801 128.012 194.074 127.449V124.848H192.375C189.719 124.848 188.391 125.625 188.391 127.18C188.391 127.859 188.617 128.391 189.07 128.773C189.523 129.156 190.105 129.348 190.816 129.348ZM205.77 120.266C205.441 120.211 205.086 120.184 204.703 120.184C203.281 120.184 202.316 120.789 201.809 122V131H199.641V118.32H201.75L201.785 119.785C202.496 118.652 203.504 118.086 204.809 118.086C205.23 118.086 205.551 118.141 205.77 118.25V120.266ZM215.133 131C215.008 130.75 214.906 130.305 214.828 129.664C213.82 130.711 212.617 131.234 211.219 131.234C209.969 131.234 208.941 130.883 208.137 130.18C207.34 129.469 206.941 128.57 206.941 127.484C206.941 126.164 207.441 125.141 208.441 124.414C209.449 123.68 210.863 123.312 212.684 123.312H214.793V122.316C214.793 121.559 214.566 120.957 214.113 120.512C213.66 120.059 212.992 119.832 212.109 119.832C211.336 119.832 210.688 120.027 210.164 120.418C209.641 120.809 209.379 121.281 209.379 121.836H207.199C207.199 121.203 207.422 120.594 207.867 120.008C208.32 119.414 208.93 118.945 209.695 118.602C210.469 118.258 211.316 118.086 212.238 118.086C213.699 118.086 214.844 118.453 215.672 119.188C216.5 119.914 216.93 120.918 216.961 122.199V128.035C216.961 129.199 217.109 130.125 217.406 130.812V131H215.133ZM211.535 129.348C212.215 129.348 212.859 129.172 213.469 128.82C214.078 128.469 214.52 128.012 214.793 127.449V124.848H213.094C210.438 124.848 209.109 125.625 209.109 127.18C209.109 127.859 209.336 128.391 209.789 128.773C210.242 129.156 210.824 129.348 211.535 129.348ZM219.844 124.555C219.844 122.578 220.301 121.008 221.215 119.844C222.129 118.672 223.34 118.086 224.848 118.086C226.395 118.086 227.602 118.633 228.469 119.727L228.574 118.32H230.555V130.695C230.555 132.336 230.066 133.629 229.09 134.574C228.121 135.52 226.816 135.992 225.176 135.992C224.262 135.992 223.367 135.797 222.492 135.406C221.617 135.016 220.949 134.48 220.488 133.801L221.613 132.5C222.543 133.648 223.68 134.223 225.023 134.223C226.078 134.223 226.898 133.926 227.484 133.332C228.078 132.738 228.375 131.902 228.375 130.824V129.734C227.508 130.734 226.324 131.234 224.824 131.234C223.34 131.234 222.137 130.637 221.215 129.441C220.301 128.246 219.844 126.617 219.844 124.555ZM222.023 124.801C222.023 126.23 222.316 127.355 222.902 128.176C223.488 128.988 224.309 129.395 225.363 129.395C226.73 129.395 227.734 128.773 228.375 127.531V121.742C227.711 120.531 226.715 119.926 225.387 119.926C224.332 119.926 223.508 120.336 222.914 121.156C222.32 121.977 222.023 123.191 222.023 124.801ZM239.965 120.266C239.637 120.211 239.281 120.184 238.898 120.184C237.477 120.184 236.512 120.789 236.004 122V131H233.836V118.32H235.945L235.98 119.785C236.691 118.652 237.699 118.086 239.004 118.086C239.426 118.086 239.746 118.141 239.965 118.25V120.266ZM249.328 131C249.203 130.75 249.102 130.305 249.023 129.664C248.016 130.711 246.812 131.234 245.414 131.234C244.164 131.234 243.137 130.883 242.332 130.18C241.535 129.469 241.137 128.57 241.137 127.484C241.137 126.164 241.637 125.141 242.637 124.414C243.645 123.68 245.059 123.312 246.879 123.312H248.988V122.316C248.988 121.559 248.762 120.957 248.309 120.512C247.855 120.059 247.188 119.832 246.305 119.832C245.531 119.832 244.883 120.027 244.359 120.418C243.836 120.809 243.574 121.281 243.574 121.836H241.395C241.395 121.203 241.617 120.594 242.062 120.008C242.516 119.414 243.125 118.945 243.891 118.602C244.664 118.258 245.512 118.086 246.434 118.086C247.895 118.086 249.039 118.453 249.867 119.188C250.695 119.914 251.125 120.918 251.156 122.199V128.035C251.156 129.199 251.305 130.125 251.602 130.812V131H249.328ZM245.73 129.348C246.41 129.348 247.055 129.172 247.664 128.82C248.273 128.469 248.715 128.012 248.988 127.449V124.848H247.289C244.633 124.848 243.305 125.625 243.305 127.18C243.305 127.859 243.531 128.391 243.984 128.773C244.438 129.156 245.02 129.348 245.73 129.348ZM265.266 124.801C265.266 126.73 264.824 128.285 263.941 129.465C263.059 130.645 261.863 131.234 260.355 131.234C258.816 131.234 257.605 130.746 256.723 129.77V135.875H254.555V118.32H256.535L256.641 119.727C257.523 118.633 258.75 118.086 260.32 118.086C261.844 118.086 263.047 118.66 263.93 119.809C264.82 120.957 265.266 122.555 265.266 124.602V124.801ZM263.098 124.555C263.098 123.125 262.793 121.996 262.184 121.168C261.574 120.34 260.738 119.926 259.676 119.926C258.363 119.926 257.379 120.508 256.723 121.672V127.73C257.371 128.887 258.363 129.465 259.699 129.465C260.738 129.465 261.562 129.055 262.172 128.234C262.789 127.406 263.098 126.18 263.098 124.555ZM270.199 119.855C271.16 118.676 272.41 118.086 273.949 118.086C276.629 118.086 277.98 119.598 278.004 122.621V131H275.836V122.609C275.828 121.695 275.617 121.02 275.203 120.582C274.797 120.145 274.16 119.926 273.293 119.926C272.59 119.926 271.973 120.113 271.441 120.488C270.91 120.863 270.496 121.355 270.199 121.965V131H268.031V113H270.199V119.855ZM281.18 134.398L279.949 133.555C280.684 132.531 281.066 131.477 281.098 130.391V128.434H283.219V130.133C283.219 130.922 283.023 131.711 282.633 132.5C282.25 133.289 281.766 133.922 281.18 134.398ZM294.855 115.25V118.32H297.223V119.996H294.855V127.859C294.855 128.367 294.961 128.75 295.172 129.008C295.383 129.258 295.742 129.383 296.25 129.383C296.5 129.383 296.844 129.336 297.281 129.242V131C296.711 131.156 296.156 131.234 295.617 131.234C294.648 131.234 293.918 130.941 293.426 130.355C292.934 129.77 292.688 128.938 292.688 127.859V119.996H290.379V118.32H292.688V115.25H294.855ZM301.934 119.855C302.895 118.676 304.145 118.086 305.684 118.086C308.363 118.086 309.715 119.598 309.738 122.621V131H307.57V122.609C307.562 121.695 307.352 121.02 306.938 120.582C306.531 120.145 305.895 119.926 305.027 119.926C304.324 119.926 303.707 120.113 303.176 120.488C302.645 120.863 302.23 121.355 301.934 121.965V131H299.766V113H301.934V119.855ZM315.34 131H313.172V118.32H315.34V131ZM312.996 114.957C312.996 114.605 313.102 114.309 313.312 114.066C313.531 113.824 313.852 113.703 314.273 113.703C314.695 113.703 315.016 113.824 315.234 114.066C315.453 114.309 315.562 114.605 315.562 114.957C315.562 115.309 315.453 115.602 315.234 115.836C315.016 116.07 314.695 116.188 314.273 116.188C313.852 116.188 313.531 116.07 313.312 115.836C313.102 115.602 312.996 115.309 312.996 114.957ZM326.203 127.637C326.203 127.051 325.98 126.598 325.535 126.277C325.098 125.949 324.328 125.668 323.227 125.434C322.133 125.199 321.262 124.918 320.613 124.59C319.973 124.262 319.496 123.871 319.184 123.418C318.879 122.965 318.727 122.426 318.727 121.801C318.727 120.762 319.164 119.883 320.039 119.164C320.922 118.445 322.047 118.086 323.414 118.086C324.852 118.086 326.016 118.457 326.906 119.199C327.805 119.941 328.254 120.891 328.254 122.047H326.074C326.074 121.453 325.82 120.941 325.312 120.512C324.812 120.082 324.18 119.867 323.414 119.867C322.625 119.867 322.008 120.039 321.562 120.383C321.117 120.727 320.895 121.176 320.895 121.73C320.895 122.254 321.102 122.648 321.516 122.914C321.93 123.18 322.676 123.434 323.754 123.676C324.84 123.918 325.719 124.207 326.391 124.543C327.062 124.879 327.559 125.285 327.879 125.762C328.207 126.23 328.371 126.805 328.371 127.484C328.371 128.617 327.918 129.527 327.012 130.215C326.105 130.895 324.93 131.234 323.484 131.234C322.469 131.234 321.57 131.055 320.789 130.695C320.008 130.336 319.395 129.836 318.949 129.195C318.512 128.547 318.293 127.848 318.293 127.098H320.461C320.5 127.824 320.789 128.402 321.328 128.832C321.875 129.254 322.594 129.465 323.484 129.465C324.305 129.465 324.961 129.301 325.453 128.973C325.953 128.637 326.203 128.191 326.203 127.637ZM340.09 115.25V118.32H342.457V119.996H340.09V127.859C340.09 128.367 340.195 128.75 340.406 129.008C340.617 129.258 340.977 129.383 341.484 129.383C341.734 129.383 342.078 129.336 342.516 129.242V131C341.945 131.156 341.391 131.234 340.852 131.234C339.883 131.234 339.152 130.941 338.66 130.355C338.168 129.77 337.922 128.938 337.922 127.859V119.996H335.613V118.32H337.922V115.25H340.09ZM347.355 131H345.188V118.32H347.355V131ZM345.012 114.957C345.012 114.605 345.117 114.309 345.328 114.066C345.547 113.824 345.867 113.703 346.289 113.703C346.711 113.703 347.031 113.824 347.25 114.066C347.469 114.309 347.578 114.605 347.578 114.957C347.578 115.309 347.469 115.602 347.25 115.836C347.031 116.07 346.711 116.188 346.289 116.188C345.867 116.188 345.547 116.07 345.328 115.836C345.117 115.602 345.012 115.309 345.012 114.957ZM352.875 118.32L352.934 119.727C353.863 118.633 355.117 118.086 356.695 118.086C358.469 118.086 359.676 118.766 360.316 120.125C360.738 119.516 361.285 119.023 361.957 118.648C362.637 118.273 363.438 118.086 364.359 118.086C367.141 118.086 368.555 119.559 368.602 122.504V131H366.434V122.633C366.434 121.727 366.227 121.051 365.812 120.605C365.398 120.152 364.703 119.926 363.727 119.926C362.922 119.926 362.254 120.168 361.723 120.652C361.191 121.129 360.883 121.773 360.797 122.586V131H358.617V122.691C358.617 120.848 357.715 119.926 355.91 119.926C354.488 119.926 353.516 120.531 352.992 121.742V131H350.824V118.32H352.875ZM377.145 131.234C375.426 131.234 374.027 130.672 372.949 129.547C371.871 128.414 371.332 126.902 371.332 125.012V124.613C371.332 123.355 371.57 122.234 372.047 121.25C372.531 120.258 373.203 119.484 374.062 118.93C374.93 118.367 375.867 118.086 376.875 118.086C378.523 118.086 379.805 118.629 380.719 119.715C381.633 120.801 382.09 122.355 382.09 124.379V125.281H373.5C373.531 126.531 373.895 127.543 374.59 128.316C375.293 129.082 376.184 129.465 377.262 129.465C378.027 129.465 378.676 129.309 379.207 128.996C379.738 128.684 380.203 128.27 380.602 127.754L381.926 128.785C380.863 130.418 379.27 131.234 377.145 131.234ZM376.875 119.867C376 119.867 375.266 120.188 374.672 120.828C374.078 121.461 373.711 122.352 373.57 123.5H379.922V123.336C379.859 122.234 379.562 121.383 379.031 120.781C378.5 120.172 377.781 119.867 376.875 119.867ZM398.391 131C398.266 130.75 398.164 130.305 398.086 129.664C397.078 130.711 395.875 131.234 394.477 131.234C393.227 131.234 392.199 130.883 391.395 130.18C390.598 129.469 390.199 128.57 390.199 127.484C390.199 126.164 390.699 125.141 391.699 124.414C392.707 123.68 394.121 123.312 395.941 123.312H398.051V122.316C398.051 121.559 397.824 120.957 397.371 120.512C396.918 120.059 396.25 119.832 395.367 119.832C394.594 119.832 393.945 120.027 393.422 120.418C392.898 120.809 392.637 121.281 392.637 121.836H390.457C390.457 121.203 390.68 120.594 391.125 120.008C391.578 119.414 392.188 118.945 392.953 118.602C393.727 118.258 394.574 118.086 395.496 118.086C396.957 118.086 398.102 118.453 398.93 119.188C399.758 119.914 400.188 120.918 400.219 122.199V128.035C400.219 129.199 400.367 130.125 400.664 130.812V131H398.391ZM394.793 129.348C395.473 129.348 396.117 129.172 396.727 128.82C397.336 128.469 397.777 128.012 398.051 127.449V124.848H396.352C393.695 124.848 392.367 125.625 392.367 127.18C392.367 127.859 392.594 128.391 393.047 128.773C393.5 129.156 394.082 129.348 394.793 129.348ZM411.926 131H409.758V113H411.926V131ZM417.762 131H415.594V118.32H417.762V131ZM415.418 114.957C415.418 114.605 415.523 114.309 415.734 114.066C415.953 113.824 416.273 113.703 416.695 113.703C417.117 113.703 417.438 113.824 417.656 114.066C417.875 114.309 417.984 114.605 417.984 114.957C417.984 115.309 417.875 115.602 417.656 115.836C417.438 116.07 417.117 116.188 416.695 116.188C416.273 116.188 415.953 116.07 415.734 115.836C415.523 115.602 415.418 115.309 415.418 114.957ZM424.184 115.25V118.32H426.551V119.996H424.184V127.859C424.184 128.367 424.289 128.75 424.5 129.008C424.711 129.258 425.07 129.383 425.578 129.383C425.828 129.383 426.172 129.336 426.609 129.242V131C426.039 131.156 425.484 131.234 424.945 131.234C423.977 131.234 423.246 130.941 422.754 130.355C422.262 129.77 422.016 128.938 422.016 127.859V119.996H419.707V118.32H422.016V115.25H424.184ZM432.035 115.25V118.32H434.402V119.996H432.035V127.859C432.035 128.367 432.141 128.75 432.352 129.008C432.562 129.258 432.922 129.383 433.43 129.383C433.68 129.383 434.023 129.336 434.461 129.242V131C433.891 131.156 433.336 131.234 432.797 131.234C431.828 131.234 431.098 130.941 430.605 130.355C430.113 129.77 429.867 128.938 429.867 127.859V119.996H427.559V118.32H429.867V115.25H432.035ZM439.301 131H437.133V113H439.301V131ZM448.043 131.234C446.324 131.234 444.926 130.672 443.848 129.547C442.77 128.414 442.23 126.902 442.23 125.012V124.613C442.23 123.355 442.469 122.234 442.945 121.25C443.43 120.258 444.102 119.484 444.961 118.93C445.828 118.367 446.766 118.086 447.773 118.086C449.422 118.086 450.703 118.629 451.617 119.715C452.531 120.801 452.988 122.355 452.988 124.379V125.281H444.398C444.43 126.531 444.793 127.543 445.488 128.316C446.191 129.082 447.082 129.465 448.16 129.465C448.926 129.465 449.574 129.309 450.105 128.996C450.637 128.684 451.102 128.27 451.5 127.754L452.824 128.785C451.762 130.418 450.168 131.234 448.043 131.234ZM447.773 119.867C446.898 119.867 446.164 120.188 445.57 120.828C444.977 121.461 444.609 122.352 444.469 123.5H450.82V123.336C450.758 122.234 450.461 121.383 449.93 120.781C449.398 120.172 448.68 119.867 447.773 119.867ZM472.195 124.801C472.195 126.738 471.75 128.297 470.859 129.477C469.969 130.648 468.773 131.234 467.273 131.234C465.672 131.234 464.434 130.668 463.559 129.535L463.453 131H461.461V113H463.629V119.715C464.504 118.629 465.711 118.086 467.25 118.086C468.789 118.086 469.996 118.668 470.871 119.832C471.754 120.996 472.195 122.59 472.195 124.613V124.801ZM470.027 124.555C470.027 123.078 469.742 121.938 469.172 121.133C468.602 120.328 467.781 119.926 466.711 119.926C465.281 119.926 464.254 120.59 463.629 121.918V127.402C464.293 128.73 465.328 129.395 466.734 129.395C467.773 129.395 468.582 128.992 469.16 128.188C469.738 127.383 470.027 126.172 470.027 124.555ZM477.293 131H475.125V118.32H477.293V131ZM474.949 114.957C474.949 114.605 475.055 114.309 475.266 114.066C475.484 113.824 475.805 113.703 476.227 113.703C476.648 113.703 476.969 113.824 477.188 114.066C477.406 114.309 477.516 114.605 477.516 114.957C477.516 115.309 477.406 115.602 477.188 115.836C476.969 116.07 476.648 116.188 476.227 116.188C475.805 116.188 475.484 116.07 475.266 115.836C475.055 115.602 474.949 115.309 474.949 114.957ZM483.715 115.25V118.32H486.082V119.996H483.715V127.859C483.715 128.367 483.82 128.75 484.031 129.008C484.242 129.258 484.602 129.383 485.109 129.383C485.359 129.383 485.703 129.336 486.141 129.242V131C485.57 131.156 485.016 131.234 484.477 131.234C483.508 131.234 482.777 130.941 482.285 130.355C481.793 129.77 481.547 128.938 481.547 127.859V119.996H479.238V118.32H481.547V115.25H483.715ZM496.934 131H494.766V113H496.934V131ZM499.84 124.543C499.84 123.301 500.082 122.184 500.566 121.191C501.059 120.199 501.738 119.434 502.605 118.895C503.48 118.355 504.477 118.086 505.594 118.086C507.32 118.086 508.715 118.684 509.777 119.879C510.848 121.074 511.383 122.664 511.383 124.648V124.801C511.383 126.035 511.145 127.145 510.668 128.129C510.199 129.105 509.523 129.867 508.641 130.414C507.766 130.961 506.758 131.234 505.617 131.234C503.898 131.234 502.504 130.637 501.434 129.441C500.371 128.246 499.84 126.664 499.84 124.695V124.543ZM502.02 124.801C502.02 126.207 502.344 127.336 502.992 128.188C503.648 129.039 504.523 129.465 505.617 129.465C506.719 129.465 507.594 129.035 508.242 128.176C508.891 127.309 509.215 126.098 509.215 124.543C509.215 123.152 508.883 122.027 508.219 121.168C507.562 120.301 506.688 119.867 505.594 119.867C504.523 119.867 503.66 120.293 503.004 121.145C502.348 121.996 502.02 123.215 502.02 124.801ZM516.152 118.32L516.223 119.914C517.191 118.695 518.457 118.086 520.02 118.086C522.699 118.086 524.051 119.598 524.074 122.621V131H521.906V122.609C521.898 121.695 521.688 121.02 521.273 120.582C520.867 120.145 520.23 119.926 519.363 119.926C518.66 119.926 518.043 120.113 517.512 120.488C516.98 120.863 516.566 121.355 516.27 121.965V131H514.102V118.32H516.152ZM526.828 124.555C526.828 122.578 527.285 121.008 528.199 119.844C529.113 118.672 530.324 118.086 531.832 118.086C533.379 118.086 534.586 118.633 535.453 119.727L535.559 118.32H537.539V130.695C537.539 132.336 537.051 133.629 536.074 134.574C535.105 135.52 533.801 135.992 532.16 135.992C531.246 135.992 530.352 135.797 529.477 135.406C528.602 135.016 527.934 134.48 527.473 133.801L528.598 132.5C529.527 133.648 530.664 134.223 532.008 134.223C533.062 134.223 533.883 133.926 534.469 133.332C535.062 132.738 535.359 131.902 535.359 130.824V129.734C534.492 130.734 533.309 131.234 531.809 131.234C530.324 131.234 529.121 130.637 528.199 129.441C527.285 128.246 526.828 126.617 526.828 124.555ZM529.008 124.801C529.008 126.23 529.301 127.355 529.887 128.176C530.473 128.988 531.293 129.395 532.348 129.395C533.715 129.395 534.719 128.773 535.359 127.531V121.742C534.695 120.531 533.699 119.926 532.371 119.926C531.316 119.926 530.492 120.336 529.898 121.156C529.305 121.977 529.008 123.191 529.008 124.801ZM546.082 131.234C544.363 131.234 542.965 130.672 541.887 129.547C540.809 128.414 540.27 126.902 540.27 125.012V124.613C540.27 123.355 540.508 122.234 540.984 121.25C541.469 120.258 542.141 119.484 543 118.93C543.867 118.367 544.805 118.086 545.812 118.086C547.461 118.086 548.742 118.629 549.656 119.715C550.57 120.801 551.027 122.355 551.027 124.379V125.281H542.438C542.469 126.531 542.832 127.543 543.527 128.316C544.23 129.082 545.121 129.465 546.199 129.465C546.965 129.465 547.613 129.309 548.145 128.996C548.676 128.684 549.141 128.27 549.539 127.754L550.863 128.785C549.801 130.418 548.207 131.234 546.082 131.234ZM545.812 119.867C544.938 119.867 544.203 120.188 543.609 120.828C543.016 121.461 542.648 122.352 542.508 123.5H548.859V123.336C548.797 122.234 548.5 121.383 547.969 120.781C547.438 120.172 546.719 119.867 545.812 119.867ZM559.676 120.266C559.348 120.211 558.992 120.184 558.609 120.184C557.188 120.184 556.223 120.789 555.715 122V131H553.547V118.32H555.656L555.691 119.785C556.402 118.652 557.41 118.086 558.715 118.086C559.137 118.086 559.457 118.141 559.676 118.25V120.266ZM570.574 115.25V118.32H572.941V119.996H570.574V127.859C570.574 128.367 570.68 128.75 570.891 129.008C571.102 129.258 571.461 129.383 571.969 129.383C572.219 129.383 572.562 129.336 573 129.242V131C572.43 131.156 571.875 131.234 571.336 131.234C570.367 131.234 569.637 130.941 569.145 130.355C568.652 129.77 568.406 128.938 568.406 127.859V119.996H566.098V118.32H568.406V115.25H570.574ZM574.676 124.543C574.676 123.301 574.918 122.184 575.402 121.191C575.895 120.199 576.574 119.434 577.441 118.895C578.316 118.355 579.312 118.086 580.43 118.086C582.156 118.086 583.551 118.684 584.613 119.879C585.684 121.074 586.219 122.664 586.219 124.648V124.801C586.219 126.035 585.98 127.145 585.504 128.129C585.035 129.105 584.359 129.867 583.477 130.414C582.602 130.961 581.594 131.234 580.453 131.234C578.734 131.234 577.34 130.637 576.27 129.441C575.207 128.246 574.676 126.664 574.676 124.695V124.543ZM576.855 124.801C576.855 126.207 577.18 127.336 577.828 128.188C578.484 129.039 579.359 129.465 580.453 129.465C581.555 129.465 582.43 129.035 583.078 128.176C583.727 127.309 584.051 126.098 584.051 124.543C584.051 123.152 583.719 122.027 583.055 121.168C582.398 120.301 581.523 119.867 580.43 119.867C579.359 119.867 578.496 120.293 577.84 121.145C577.184 121.996 576.855 123.215 576.855 124.801ZM596.93 118.32L596.988 119.727C597.918 118.633 599.172 118.086 600.75 118.086C602.523 118.086 603.73 118.766 604.371 120.125C604.793 119.516 605.34 119.023 606.012 118.648C606.691 118.273 607.492 118.086 608.414 118.086C611.195 118.086 612.609 119.559 612.656 122.504V131H610.488V122.633C610.488 121.727 610.281 121.051 609.867 120.605C609.453 120.152 608.758 119.926 607.781 119.926C606.977 119.926 606.309 120.168 605.777 120.652C605.246 121.129 604.938 121.773 604.852 122.586V131H602.672V122.691C602.672 120.848 601.77 119.926 599.965 119.926C598.543 119.926 597.57 120.531 597.047 121.742V131H594.879V118.32H596.93ZM623.766 131C623.641 130.75 623.539 130.305 623.461 129.664C622.453 130.711 621.25 131.234 619.852 131.234C618.602 131.234 617.574 130.883 616.77 130.18C615.973 129.469 615.574 128.57 615.574 127.484C615.574 126.164 616.074 125.141 617.074 124.414C618.082 123.68 619.496 123.312 621.316 123.312H623.426V122.316C623.426 121.559 623.199 120.957 622.746 120.512C622.293 120.059 621.625 119.832 620.742 119.832C619.969 119.832 619.32 120.027 618.797 120.418C618.273 120.809 618.012 121.281 618.012 121.836H615.832C615.832 121.203 616.055 120.594 616.5 120.008C616.953 119.414 617.562 118.945 618.328 118.602C619.102 118.258 619.949 118.086 620.871 118.086C622.332 118.086 623.477 118.453 624.305 119.188C625.133 119.914 625.562 120.918 625.594 122.199V128.035C625.594 129.199 625.742 130.125 626.039 130.812V131H623.766ZM620.168 129.348C620.848 129.348 621.492 129.172 622.102 128.82C622.711 128.469 623.152 128.012 623.426 127.449V124.848H621.727C619.07 124.848 617.742 125.625 617.742 127.18C617.742 127.859 617.969 128.391 618.422 128.773C618.875 129.156 619.457 129.348 620.168 129.348ZM632.531 125.129L631.172 126.547V131H629.004V113H631.172V123.887L632.332 122.492L636.281 118.32H638.918L633.984 123.617L639.492 131H636.949L632.531 125.129ZM646.184 131.234C644.465 131.234 643.066 130.672 641.988 129.547C640.91 128.414 640.371 126.902 640.371 125.012V124.613C640.371 123.355 640.609 122.234 641.086 121.25C641.57 120.258 642.242 119.484 643.102 118.93C643.969 118.367 644.906 118.086 645.914 118.086C647.562 118.086 648.844 118.629 649.758 119.715C650.672 120.801 651.129 122.355 651.129 124.379V125.281H642.539C642.57 126.531 642.934 127.543 643.629 128.316C644.332 129.082 645.223 129.465 646.301 129.465C647.066 129.465 647.715 129.309 648.246 128.996C648.777 128.684 649.242 128.27 649.641 127.754L650.965 128.785C649.902 130.418 648.309 131.234 646.184 131.234ZM645.914 119.867C645.039 119.867 644.305 120.188 643.711 120.828C643.117 121.461 642.75 122.352 642.609 123.5H648.961V123.336C648.898 122.234 648.602 121.383 648.07 120.781C647.539 120.172 646.82 119.867 645.914 119.867ZM666.984 127.637C666.984 127.051 666.762 126.598 666.316 126.277C665.879 125.949 665.109 125.668 664.008 125.434C662.914 125.199 662.043 124.918 661.395 124.59C660.754 124.262 660.277 123.871 659.965 123.418C659.66 122.965 659.508 122.426 659.508 121.801C659.508 120.762 659.945 119.883 660.82 119.164C661.703 118.445 662.828 118.086 664.195 118.086C665.633 118.086 666.797 118.457 667.688 119.199C668.586 119.941 669.035 120.891 669.035 122.047H666.855C666.855 121.453 666.602 120.941 666.094 120.512C665.594 120.082 664.961 119.867 664.195 119.867C663.406 119.867 662.789 120.039 662.344 120.383C661.898 120.727 661.676 121.176 661.676 121.73C661.676 122.254 661.883 122.648 662.297 122.914C662.711 123.18 663.457 123.434 664.535 123.676C665.621 123.918 666.5 124.207 667.172 124.543C667.844 124.879 668.34 125.285 668.66 125.762C668.988 126.23 669.152 126.805 669.152 127.484C669.152 128.617 668.699 129.527 667.793 130.215C666.887 130.895 665.711 131.234 664.266 131.234C663.25 131.234 662.352 131.055 661.57 130.695C660.789 130.336 660.176 129.836 659.73 129.195C659.293 128.547 659.074 127.848 659.074 127.098H661.242C661.281 127.824 661.57 128.402 662.109 128.832C662.656 129.254 663.375 129.465 664.266 129.465C665.086 129.465 665.742 129.301 666.234 128.973C666.734 128.637 666.984 128.191 666.984 127.637ZM679.805 129.746C678.961 130.738 677.723 131.234 676.09 131.234C674.738 131.234 673.707 130.844 672.996 130.062C672.293 129.273 671.938 128.109 671.93 126.57V118.32H674.098V126.512C674.098 128.434 674.879 129.395 676.441 129.395C678.098 129.395 679.199 128.777 679.746 127.543V118.32H681.914V131H679.852L679.805 129.746ZM691.348 120.266C691.02 120.211 690.664 120.184 690.281 120.184C688.859 120.184 687.895 120.789 687.387 122V131H685.219V118.32H687.328L687.363 119.785C688.074 118.652 689.082 118.086 690.387 118.086C690.809 118.086 691.129 118.141 691.348 118.25V120.266ZM698.379 131.234C696.66 131.234 695.262 130.672 694.184 129.547C693.105 128.414 692.566 126.902 692.566 125.012V124.613C692.566 123.355 692.805 122.234 693.281 121.25C693.766 120.258 694.438 119.484 695.297 118.93C696.164 118.367 697.102 118.086 698.109 118.086C699.758 118.086 701.039 118.629 701.953 119.715C702.867 120.801 703.324 122.355 703.324 124.379V125.281H694.734C694.766 126.531 695.129 127.543 695.824 128.316C696.527 129.082 697.418 129.465 698.496 129.465C699.262 129.465 699.91 129.309 700.441 128.996C700.973 128.684 701.438 128.27 701.836 127.754L703.16 128.785C702.098 130.418 700.504 131.234 698.379 131.234ZM698.109 119.867C697.234 119.867 696.5 120.188 695.906 120.828C695.312 121.461 694.945 122.352 694.805 123.5H701.156V123.336C701.094 122.234 700.797 121.383 700.266 120.781C699.734 120.172 699.016 119.867 698.109 119.867ZM705.773 134.398L704.543 133.555C705.277 132.531 705.66 131.477 705.691 130.391V128.434H707.812V130.133C707.812 130.922 707.617 131.711 707.227 132.5C706.844 133.289 706.359 133.922 705.773 134.398ZM719.449 115.25V118.32H721.816V119.996H719.449V127.859C719.449 128.367 719.555 128.75 719.766 129.008C719.977 129.258 720.336 129.383 720.844 129.383C721.094 129.383 721.438 129.336 721.875 129.242V131C721.305 131.156 720.75 131.234 720.211 131.234C719.242 131.234 718.512 130.941 718.02 130.355C717.527 129.77 717.281 128.938 717.281 127.859V119.996H714.973V118.32H717.281V115.25H719.449ZM726.527 119.855C727.488 118.676 728.738 118.086 730.277 118.086C732.957 118.086 734.309 119.598 734.332 122.621V131H732.164V122.609C732.156 121.695 731.945 121.02 731.531 120.582C731.125 120.145 730.488 119.926 729.621 119.926C728.918 119.926 728.301 120.113 727.77 120.488C727.238 120.863 726.824 121.355 726.527 121.965V131H724.359V113H726.527V119.855ZM739.934 131H737.766V118.32H739.934V131ZM737.59 114.957C737.59 114.605 737.695 114.309 737.906 114.066C738.125 113.824 738.445 113.703 738.867 113.703C739.289 113.703 739.609 113.824 739.828 114.066C740.047 114.309 740.156 114.605 740.156 114.957C740.156 115.309 740.047 115.602 739.828 115.836C739.609 116.07 739.289 116.188 738.867 116.188C738.445 116.188 738.125 116.07 737.906 115.836C737.695 115.602 737.59 115.309 737.59 114.957ZM750.797 127.637C750.797 127.051 750.574 126.598 750.129 126.277C749.691 125.949 748.922 125.668 747.82 125.434C746.727 125.199 745.855 124.918 745.207 124.59C744.566 124.262 744.09 123.871 743.777 123.418C743.473 122.965 743.32 122.426 743.32 121.801C743.32 120.762 743.758 119.883 744.633 119.164C745.516 118.445 746.641 118.086 748.008 118.086C749.445 118.086 750.609 118.457 751.5 119.199C752.398 119.941 752.848 120.891 752.848 122.047H750.668C750.668 121.453 750.414 120.941 749.906 120.512C749.406 120.082 748.773 119.867 748.008 119.867C747.219 119.867 746.602 120.039 746.156 120.383C745.711 120.727 745.488 121.176 745.488 121.73C745.488 122.254 745.695 122.648 746.109 122.914C746.523 123.18 747.27 123.434 748.348 123.676C749.434 123.918 750.312 124.207 750.984 124.543C751.656 124.879 752.152 125.285 752.473 125.762C752.801 126.23 752.965 126.805 752.965 127.484C752.965 128.617 752.512 129.527 751.605 130.215C750.699 130.895 749.523 131.234 748.078 131.234C747.062 131.234 746.164 131.055 745.383 130.695C744.602 130.336 743.988 129.836 743.543 129.195C743.105 128.547 742.887 127.848 742.887 127.098H745.055C745.094 127.824 745.383 128.402 745.922 128.832C746.469 129.254 747.188 129.465 748.078 129.465C748.898 129.465 749.555 129.301 750.047 128.973C750.547 128.637 750.797 128.191 750.797 127.637ZM764.098 131H761.93V113H764.098V131ZM769.934 131H767.766V118.32H769.934V131ZM767.59 114.957C767.59 114.605 767.695 114.309 767.906 114.066C768.125 113.824 768.445 113.703 768.867 113.703C769.289 113.703 769.609 113.824 769.828 114.066C770.047 114.309 770.156 114.605 770.156 114.957C770.156 115.309 770.047 115.602 769.828 115.836C769.609 116.07 769.289 116.188 768.867 116.188C768.445 116.188 768.125 116.07 767.906 115.836C767.695 115.602 767.59 115.309 767.59 114.957ZM775.465 118.32L775.535 119.914C776.504 118.695 777.77 118.086 779.332 118.086C782.012 118.086 783.363 119.598 783.387 122.621V131H781.219V122.609C781.211 121.695 781 121.02 780.586 120.582C780.18 120.145 779.543 119.926 778.676 119.926C777.973 119.926 777.355 120.113 776.824 120.488C776.293 120.863 775.879 121.355 775.582 121.965V131H773.414V118.32H775.465ZM791.918 131.234C790.199 131.234 788.801 130.672 787.723 129.547C786.645 128.414 786.105 126.902 786.105 125.012V124.613C786.105 123.355 786.344 122.234 786.82 121.25C787.305 120.258 787.977 119.484 788.836 118.93C789.703 118.367 790.641 118.086 791.648 118.086C793.297 118.086 794.578 118.629 795.492 119.715C796.406 120.801 796.863 122.355 796.863 124.379V125.281H788.273C788.305 126.531 788.668 127.543 789.363 128.316C790.066 129.082 790.957 129.465 792.035 129.465C792.801 129.465 793.449 129.309 793.98 128.996C794.512 128.684 794.977 128.27 795.375 127.754L796.699 128.785C795.637 130.418 794.043 131.234 791.918 131.234ZM791.648 119.867C790.773 119.867 790.039 120.188 789.445 120.828C788.852 121.461 788.484 122.352 788.344 123.5H794.695V123.336C794.633 122.234 794.336 121.383 793.805 120.781C793.273 120.172 792.555 119.867 791.648 119.867ZM816.562 128.012L819 118.32H821.168L817.477 131H815.719L812.637 121.391L809.637 131H807.879L804.199 118.32H806.355L808.852 127.812L811.805 118.32H813.551L816.562 128.012ZM825.738 131H823.57V118.32H825.738V131ZM823.395 114.957C823.395 114.605 823.5 114.309 823.711 114.066C823.93 113.824 824.25 113.703 824.672 113.703C825.094 113.703 825.414 113.824 825.633 114.066C825.852 114.309 825.961 114.605 825.961 114.957C825.961 115.309 825.852 115.602 825.633 115.836C825.414 116.07 825.094 116.188 824.672 116.188C824.25 116.188 823.93 116.07 823.711 115.836C823.5 115.602 823.395 115.309 823.395 114.957ZM831.574 131H829.406V113H831.574V131ZM837.41 131H835.242V113H837.41V131ZM857.578 124.801C857.578 126.738 857.133 128.297 856.242 129.477C855.352 130.648 854.156 131.234 852.656 131.234C851.055 131.234 849.816 130.668 848.941 129.535L848.836 131H846.844V113H849.012V119.715C849.887 118.629 851.094 118.086 852.633 118.086C854.172 118.086 855.379 118.668 856.254 119.832C857.137 120.996 857.578 122.59 857.578 124.613V124.801ZM855.41 124.555C855.41 123.078 855.125 121.938 854.555 121.133C853.984 120.328 853.164 119.926 852.094 119.926C850.664 119.926 849.637 120.59 849.012 121.918V127.402C849.676 128.73 850.711 129.395 852.117 129.395C853.156 129.395 853.965 128.992 854.543 128.188C855.121 127.383 855.41 126.172 855.41 124.555ZM865.582 131.234C863.863 131.234 862.465 130.672 861.387 129.547C860.309 128.414 859.77 126.902 859.77 125.012V124.613C859.77 123.355 860.008 122.234 860.484 121.25C860.969 120.258 861.641 119.484 862.5 118.93C863.367 118.367 864.305 118.086 865.312 118.086C866.961 118.086 868.242 118.629 869.156 119.715C870.07 120.801 870.527 122.355 870.527 124.379V125.281H861.938C861.969 126.531 862.332 127.543 863.027 128.316C863.73 129.082 864.621 129.465 865.699 129.465C866.465 129.465 867.113 129.309 867.645 128.996C868.176 128.684 868.641 128.27 869.039 127.754L870.363 128.785C869.301 130.418 867.707 131.234 865.582 131.234ZM865.312 119.867C864.438 119.867 863.703 120.188 863.109 120.828C862.516 121.461 862.148 122.352 862.008 123.5H868.359V123.336C868.297 122.234 868 121.383 867.469 120.781C866.938 120.172 866.219 119.867 865.312 119.867ZM878.473 124.555C878.473 122.609 878.934 121.047 879.855 119.867C880.777 118.68 881.984 118.086 883.477 118.086C884.961 118.086 886.137 118.594 887.004 119.609V113H889.172V131H887.18L887.074 129.641C886.207 130.703 885 131.234 883.453 131.234C881.984 131.234 880.785 130.633 879.855 129.43C878.934 128.227 878.473 126.656 878.473 124.719V124.555ZM880.641 124.801C880.641 126.238 880.938 127.363 881.531 128.176C882.125 128.988 882.945 129.395 883.992 129.395C885.367 129.395 886.371 128.777 887.004 127.543V121.719C886.355 120.523 885.359 119.926 884.016 119.926C882.953 119.926 882.125 120.336 881.531 121.156C880.938 121.977 880.641 123.191 880.641 124.801ZM894.902 131H892.734V118.32H894.902V131ZM892.559 114.957C892.559 114.605 892.664 114.309 892.875 114.066C893.094 113.824 893.414 113.703 893.836 113.703C894.258 113.703 894.578 113.824 894.797 114.066C895.016 114.309 895.125 114.605 895.125 114.957C895.125 115.309 895.016 115.602 894.797 115.836C894.578 116.07 894.258 116.188 893.836 116.188C893.414 116.188 893.094 116.07 892.875 115.836C892.664 115.602 892.559 115.309 892.559 114.957ZM902.566 128.059L905.707 118.32H907.922L903.375 131H901.723L897.129 118.32H899.344L902.566 128.059ZM912.363 131H910.195V118.32H912.363V131ZM910.02 114.957C910.02 114.605 910.125 114.309 910.336 114.066C910.555 113.824 910.875 113.703 911.297 113.703C911.719 113.703 912.039 113.824 912.258 114.066C912.477 114.309 912.586 114.605 912.586 114.957C912.586 115.309 912.477 115.602 912.258 115.836C912.039 116.07 911.719 116.188 911.297 116.188C910.875 116.188 910.555 116.07 910.336 115.836C910.125 115.602 910.02 115.309 910.02 114.957ZM915.316 124.555C915.316 122.609 915.777 121.047 916.699 119.867C917.621 118.68 918.828 118.086 920.32 118.086C921.805 118.086 922.98 118.594 923.848 119.609V113H926.016V131H924.023L923.918 129.641C923.051 130.703 921.844 131.234 920.297 131.234C918.828 131.234 917.629 130.633 916.699 129.43C915.777 128.227 915.316 126.656 915.316 124.719V124.555ZM917.484 124.801C917.484 126.238 917.781 127.363 918.375 128.176C918.969 128.988 919.789 129.395 920.836 129.395C922.211 129.395 923.215 128.777 923.848 127.543V121.719C923.199 120.523 922.203 119.926 920.859 119.926C919.797 119.926 918.969 120.336 918.375 121.156C917.781 121.977 917.484 123.191 917.484 124.801ZM934.652 131.234C932.934 131.234 931.535 130.672 930.457 129.547C929.379 128.414 928.84 126.902 928.84 125.012V124.613C928.84 123.355 929.078 122.234 929.555 121.25C930.039 120.258 930.711 119.484 931.57 118.93C932.438 118.367 933.375 118.086 934.383 118.086C936.031 118.086 937.312 118.629 938.227 119.715C939.141 120.801 939.598 122.355 939.598 124.379V125.281H931.008C931.039 126.531 931.402 127.543 932.098 128.316C932.801 129.082 933.691 129.465 934.77 129.465C935.535 129.465 936.184 129.309 936.715 128.996C937.246 128.684 937.711 128.27 938.109 127.754L939.434 128.785C938.371 130.418 936.777 131.234 934.652 131.234ZM934.383 119.867C933.508 119.867 932.773 120.188 932.18 120.828C931.586 121.461 931.219 122.352 931.078 123.5H937.43V123.336C937.367 122.234 937.07 121.383 936.539 120.781C936.008 120.172 935.289 119.867 934.383 119.867ZM941.59 124.555C941.59 122.609 942.051 121.047 942.973 119.867C943.895 118.68 945.102 118.086 946.594 118.086C948.078 118.086 949.254 118.594 950.121 119.609V113H952.289V131H950.297L950.191 129.641C949.324 130.703 948.117 131.234 946.57 131.234C945.102 131.234 943.902 130.633 942.973 129.43C942.051 128.227 941.59 126.656 941.59 124.719V124.555ZM943.758 124.801C943.758 126.238 944.055 127.363 944.648 128.176C945.242 128.988 946.062 129.395 947.109 129.395C948.484 129.395 949.488 128.777 950.121 127.543V121.719C949.473 120.523 948.477 119.926 947.133 119.926C946.07 119.926 945.242 120.336 944.648 121.156C944.055 121.977 943.758 123.191 943.758 124.801ZM963.973 131H961.805V118.32H963.973V131ZM961.629 114.957C961.629 114.605 961.734 114.309 961.945 114.066C962.164 113.824 962.484 113.703 962.906 113.703C963.328 113.703 963.648 113.824 963.867 114.066C964.086 114.309 964.195 114.605 964.195 114.957C964.195 115.309 964.086 115.602 963.867 115.836C963.648 116.07 963.328 116.188 962.906 116.188C962.484 116.188 962.164 116.07 961.945 115.836C961.734 115.602 961.629 115.309 961.629 114.957ZM969.504 118.32L969.574 119.914C970.543 118.695 971.809 118.086 973.371 118.086C976.051 118.086 977.402 119.598 977.426 122.621V131H975.258V122.609C975.25 121.695 975.039 121.02 974.625 120.582C974.219 120.145 973.582 119.926 972.715 119.926C972.012 119.926 971.395 120.113 970.863 120.488C970.332 120.863 969.918 121.355 969.621 121.965V131H967.453V118.32H969.504ZM983.637 115.25V118.32H986.004V119.996H983.637V127.859C983.637 128.367 983.742 128.75 983.953 129.008C984.164 129.258 984.523 129.383 985.031 129.383C985.281 129.383 985.625 129.336 986.062 129.242V131C985.492 131.156 984.938 131.234 984.398 131.234C983.43 131.234 982.699 130.941 982.207 130.355C981.715 129.77 981.469 128.938 981.469 127.859V119.996H979.16V118.32H981.469V115.25H983.637ZM987.738 124.543C987.738 123.301 987.98 122.184 988.465 121.191C988.957 120.199 989.637 119.434 990.504 118.895C991.379 118.355 992.375 118.086 993.492 118.086C995.219 118.086 996.613 118.684 997.676 119.879C998.746 121.074 999.281 122.664 999.281 124.648V124.801C999.281 126.035 999.043 127.145 998.566 128.129C998.098 129.105 997.422 129.867 996.539 130.414C995.664 130.961 994.656 131.234 993.516 131.234C991.797 131.234 990.402 130.637 989.332 129.441C988.27 128.246 987.738 126.664 987.738 124.695V124.543ZM989.918 124.801C989.918 126.207 990.242 127.336 990.891 128.188C991.547 129.039 992.422 129.465 993.516 129.465C994.617 129.465 995.492 129.035 996.141 128.176C996.789 127.309 997.113 126.098 997.113 124.543C997.113 123.152 996.781 122.027 996.117 121.168C995.461 120.301 994.586 119.867 993.492 119.867C992.422 119.867 991.559 120.293 990.902 121.145C990.246 121.996 989.918 123.215 989.918 124.801ZM1015.78 131C1015.66 130.75 1015.55 130.305 1015.48 129.664C1014.47 130.711 1013.27 131.234 1011.87 131.234C1010.62 131.234 1009.59 130.883 1008.79 130.18C1007.99 129.469 1007.59 128.57 1007.59 127.484C1007.59 126.164 1008.09 125.141 1009.09 124.414C1010.1 123.68 1011.51 123.312 1013.33 123.312H1015.44V122.316C1015.44 121.559 1015.21 120.957 1014.76 120.512C1014.31 120.059 1013.64 119.832 1012.76 119.832C1011.98 119.832 1011.34 120.027 1010.81 120.418C1010.29 120.809 1010.03 121.281 1010.03 121.836H1007.85C1007.85 121.203 1008.07 120.594 1008.52 120.008C1008.97 119.414 1009.58 118.945 1010.34 118.602C1011.12 118.258 1011.96 118.086 1012.89 118.086C1014.35 118.086 1015.49 118.453 1016.32 119.188C1017.15 119.914 1017.58 120.918 1017.61 122.199V128.035C1017.61 129.199 1017.76 130.125 1018.05 130.812V131H1015.78ZM1012.18 129.348C1012.86 129.348 1013.51 129.172 1014.12 128.82C1014.73 128.469 1015.17 128.012 1015.44 127.449V124.848H1013.74C1011.09 124.848 1009.76 125.625 1009.76 127.18C1009.76 127.859 1009.98 128.391 1010.44 128.773C1010.89 129.156 1011.47 129.348 1012.18 129.348ZM1023.95 115.25V118.32H1026.32V119.996H1023.95V127.859C1023.95 128.367 1024.05 128.75 1024.27 129.008C1024.48 129.258 1024.84 129.383 1025.34 129.383C1025.59 129.383 1025.94 129.336 1026.38 129.242V131C1025.8 131.156 1025.25 131.234 1024.71 131.234C1023.74 131.234 1023.01 130.941 1022.52 130.355C1022.03 129.77 1021.78 128.938 1021.78 127.859V119.996H1019.47V118.32H1021.78V115.25H1023.95ZM1037.17 131H1035V113H1037.17V131ZM1045.91 131.234C1044.19 131.234 1042.79 130.672 1041.71 129.547C1040.64 128.414 1040.1 126.902 1040.1 125.012V124.613C1040.1 123.355 1040.34 122.234 1040.81 121.25C1041.3 120.258 1041.97 119.484 1042.83 118.93C1043.7 118.367 1044.63 118.086 1045.64 118.086C1047.29 118.086 1048.57 118.629 1049.48 119.715C1050.4 120.801 1050.86 122.355 1050.86 124.379V125.281H1042.27C1042.3 126.531 1042.66 127.543 1043.36 128.316C1044.06 129.082 1044.95 129.465 1046.03 129.465C1046.79 129.465 1047.44 129.309 1047.97 128.996C1048.5 128.684 1048.97 128.27 1049.37 127.754L1050.69 128.785C1049.63 130.418 1048.04 131.234 1045.91 131.234ZM1045.64 119.867C1044.77 119.867 1044.03 120.188 1043.44 120.828C1042.84 121.461 1042.48 122.352 1042.34 123.5H1048.69V123.336C1048.62 122.234 1048.33 121.383 1047.8 120.781C1047.27 120.172 1046.55 119.867 1045.64 119.867ZM1061.2 131C1061.08 130.75 1060.98 130.305 1060.9 129.664C1059.89 130.711 1058.69 131.234 1057.29 131.234C1056.04 131.234 1055.01 130.883 1054.21 130.18C1053.41 129.469 1053.01 128.57 1053.01 127.484C1053.01 126.164 1053.51 125.141 1054.51 124.414C1055.52 123.68 1056.93 123.312 1058.75 123.312H1060.86V122.316C1060.86 121.559 1060.64 120.957 1060.18 120.512C1059.73 120.059 1059.06 119.832 1058.18 119.832C1057.41 119.832 1056.76 120.027 1056.23 120.418C1055.71 120.809 1055.45 121.281 1055.45 121.836H1053.27C1053.27 121.203 1053.49 120.594 1053.94 120.008C1054.39 119.414 1055 118.945 1055.77 118.602C1056.54 118.258 1057.39 118.086 1058.31 118.086C1059.77 118.086 1060.91 118.453 1061.74 119.188C1062.57 119.914 1063 120.918 1063.03 122.199V128.035C1063.03 129.199 1063.18 130.125 1063.48 130.812V131H1061.2ZM1057.61 129.348C1058.29 129.348 1058.93 129.172 1059.54 128.82C1060.15 128.469 1060.59 128.012 1060.86 127.449V124.848H1059.16C1056.51 124.848 1055.18 125.625 1055.18 127.18C1055.18 127.859 1055.41 128.391 1055.86 128.773C1056.31 129.156 1056.89 129.348 1057.61 129.348ZM1073.81 127.637C1073.81 127.051 1073.59 126.598 1073.14 126.277C1072.71 125.949 1071.94 125.668 1070.84 125.434C1069.74 125.199 1068.87 124.918 1068.22 124.59C1067.58 124.262 1067.11 123.871 1066.79 123.418C1066.49 122.965 1066.34 122.426 1066.34 121.801C1066.34 120.762 1066.77 119.883 1067.65 119.164C1068.53 118.445 1069.66 118.086 1071.02 118.086C1072.46 118.086 1073.62 118.457 1074.52 119.199C1075.41 119.941 1075.86 120.891 1075.86 122.047H1073.68C1073.68 121.453 1073.43 120.941 1072.92 120.512C1072.42 120.082 1071.79 119.867 1071.02 119.867C1070.23 119.867 1069.62 120.039 1069.17 120.383C1068.73 120.727 1068.5 121.176 1068.5 121.73C1068.5 122.254 1068.71 122.648 1069.12 122.914C1069.54 123.18 1070.29 123.434 1071.36 123.676C1072.45 123.918 1073.33 124.207 1074 124.543C1074.67 124.879 1075.17 125.285 1075.49 125.762C1075.82 126.23 1075.98 126.805 1075.98 127.484C1075.98 128.617 1075.53 129.527 1074.62 130.215C1073.71 130.895 1072.54 131.234 1071.09 131.234C1070.08 131.234 1069.18 131.055 1068.4 130.695C1067.62 130.336 1067 129.836 1066.56 129.195C1066.12 128.547 1065.9 127.848 1065.9 127.098H1068.07C1068.11 127.824 1068.4 128.402 1068.94 128.832C1069.48 129.254 1070.2 129.465 1071.09 129.465C1071.91 129.465 1072.57 129.301 1073.06 128.973C1073.56 128.637 1073.81 128.191 1073.81 127.637ZM1081.75 115.25V118.32H1084.11V119.996H1081.75V127.859C1081.75 128.367 1081.85 128.75 1082.06 129.008C1082.27 129.258 1082.63 129.383 1083.14 129.383C1083.39 129.383 1083.73 129.336 1084.17 129.242V131C1083.6 131.156 1083.05 131.234 1082.51 131.234C1081.54 131.234 1080.81 130.941 1080.32 130.355C1079.82 129.77 1079.58 128.938 1079.58 127.859V119.996H1077.27V118.32H1079.58V115.25H1081.75ZM85.582 143.25V146.32H87.9492V147.996H85.582V155.859C85.582 156.367 85.6875 156.75 85.8984 157.008C86.1094 157.258 86.4688 157.383 86.9766 157.383C87.2266 157.383 87.5703 157.336 88.0078 157.242V159C87.4375 159.156 86.8828 159.234 86.3438 159.234C85.375 159.234 84.6445 158.941 84.1523 158.355C83.6602 157.77 83.4141 156.938 83.4141 155.859V147.996H81.1055V146.32H83.4141V143.25H85.582ZM101.719 156.012L104.156 146.32H106.324L102.633 159H100.875L97.793 149.391L94.793 159H93.0352L89.3555 146.32H91.5117L94.0078 155.812L96.9609 146.32H98.707L101.719 156.012ZM107.965 152.543C107.965 151.301 108.207 150.184 108.691 149.191C109.184 148.199 109.863 147.434 110.73 146.895C111.605 146.355 112.602 146.086 113.719 146.086C115.445 146.086 116.84 146.684 117.902 147.879C118.973 149.074 119.508 150.664 119.508 152.648V152.801C119.508 154.035 119.27 155.145 118.793 156.129C118.324 157.105 117.648 157.867 116.766 158.414C115.891 158.961 114.883 159.234 113.742 159.234C112.023 159.234 110.629 158.637 109.559 157.441C108.496 156.246 107.965 154.664 107.965 152.695V152.543ZM110.145 152.801C110.145 154.207 110.469 155.336 111.117 156.188C111.773 157.039 112.648 157.465 113.742 157.465C114.844 157.465 115.719 157.035 116.367 156.176C117.016 155.309 117.34 154.098 117.34 152.543C117.34 151.152 117.008 150.027 116.344 149.168C115.688 148.301 114.812 147.867 113.719 147.867C112.648 147.867 111.785 148.293 111.129 149.145C110.473 149.996 110.145 151.215 110.145 152.801ZM130.535 159H128.367V141H130.535V159ZM136.371 159H134.203V146.32H136.371V159ZM134.027 142.957C134.027 142.605 134.133 142.309 134.344 142.066C134.562 141.824 134.883 141.703 135.305 141.703C135.727 141.703 136.047 141.824 136.266 142.066C136.484 142.309 136.594 142.605 136.594 142.957C136.594 143.309 136.484 143.602 136.266 143.836C136.047 144.07 135.727 144.188 135.305 144.188C134.883 144.188 134.562 144.07 134.344 143.836C134.133 143.602 134.027 143.309 134.027 142.957ZM141.902 146.32L141.973 147.914C142.941 146.695 144.207 146.086 145.77 146.086C148.449 146.086 149.801 147.598 149.824 150.621V159H147.656V150.609C147.648 149.695 147.438 149.02 147.023 148.582C146.617 148.145 145.98 147.926 145.113 147.926C144.41 147.926 143.793 148.113 143.262 148.488C142.73 148.863 142.316 149.355 142.02 149.965V159H139.852V146.32H141.902ZM158.355 159.234C156.637 159.234 155.238 158.672 154.16 157.547C153.082 156.414 152.543 154.902 152.543 153.012V152.613C152.543 151.355 152.781 150.234 153.258 149.25C153.742 148.258 154.414 147.484 155.273 146.93C156.141 146.367 157.078 146.086 158.086 146.086C159.734 146.086 161.016 146.629 161.93 147.715C162.844 148.801 163.301 150.355 163.301 152.379V153.281H154.711C154.742 154.531 155.105 155.543 155.801 156.316C156.504 157.082 157.395 157.465 158.473 157.465C159.238 157.465 159.887 157.309 160.418 156.996C160.949 156.684 161.414 156.27 161.812 155.754L163.137 156.785C162.074 158.418 160.48 159.234 158.355 159.234ZM158.086 147.867C157.211 147.867 156.477 148.188 155.883 148.828C155.289 149.461 154.922 150.352 154.781 151.5H161.133V151.336C161.07 150.234 160.773 149.383 160.242 148.781C159.711 148.172 158.992 147.867 158.086 147.867ZM173.203 155.637C173.203 155.051 172.98 154.598 172.535 154.277C172.098 153.949 171.328 153.668 170.227 153.434C169.133 153.199 168.262 152.918 167.613 152.59C166.973 152.262 166.496 151.871 166.184 151.418C165.879 150.965 165.727 150.426 165.727 149.801C165.727 148.762 166.164 147.883 167.039 147.164C167.922 146.445 169.047 146.086 170.414 146.086C171.852 146.086 173.016 146.457 173.906 147.199C174.805 147.941 175.254 148.891 175.254 150.047H173.074C173.074 149.453 172.82 148.941 172.312 148.512C171.812 148.082 171.18 147.867 170.414 147.867C169.625 147.867 169.008 148.039 168.562 148.383C168.117 148.727 167.895 149.176 167.895 149.73C167.895 150.254 168.102 150.648 168.516 150.914C168.93 151.18 169.676 151.434 170.754 151.676C171.84 151.918 172.719 152.207 173.391 152.543C174.062 152.879 174.559 153.285 174.879 153.762C175.207 154.23 175.371 154.805 175.371 155.484C175.371 156.617 174.918 157.527 174.012 158.215C173.105 158.895 171.93 159.234 170.484 159.234C169.469 159.234 168.57 159.055 167.789 158.695C167.008 158.336 166.395 157.836 165.949 157.195C165.512 156.547 165.293 155.848 165.293 155.098H167.461C167.5 155.824 167.789 156.402 168.328 156.832C168.875 157.254 169.594 157.465 170.484 157.465C171.305 157.465 171.961 157.301 172.453 156.973C172.953 156.637 173.203 156.191 173.203 155.637Z" fill="black"/>
</svg>
