<svg width="100" height="100" viewBox="0 0 100 100" fill="none" xmlns="http://www.w3.org/2000/svg">
<circle cx="50" cy="50" r="42.5" fill="#673AB7" stroke="black" stroke-width="5"/>
<path d="M24.3711 53.9824V63H19.0977V37.4062H29.082C31.0039 37.4062 32.6914 37.7578 34.1445 38.4609C35.6094 39.1641 36.7344 40.166 37.5195 41.4668C38.3047 42.7559 38.6973 44.2266 38.6973 45.8789C38.6973 48.3867 37.8359 50.3672 36.1133 51.8203C34.4023 53.2617 32.0293 53.9824 28.9941 53.9824H24.3711ZM24.3711 49.7109H29.082C30.4766 49.7109 31.5371 49.3828 32.2637 48.7266C33.002 48.0703 33.3711 47.1328 33.3711 45.9141C33.3711 44.6602 33.002 43.6465 32.2637 42.873C31.5254 42.0996 30.5059 41.7012 29.2051 41.6777H24.3711V49.7109ZM42.3359 63V37.4062H50.2109C52.4609 37.4062 54.4707 37.916 56.2402 38.9355C58.0215 39.9434 59.4102 41.3848 60.4062 43.2598C61.4023 45.123 61.9004 47.2441 61.9004 49.623V50.8008C61.9004 53.1797 61.4082 55.2949 60.4238 57.1465C59.4512 58.998 58.0742 60.4336 56.293 61.4531C54.5117 62.4727 52.502 62.9883 50.2637 63H42.3359ZM47.6094 41.6777V58.7637H50.1582C52.2207 58.7637 53.7969 58.0898 54.8867 56.7422C55.9766 55.3945 56.5332 53.4668 56.5566 50.959V49.6055C56.5566 47.0039 56.0176 45.0352 54.9395 43.6992C53.8613 42.3516 52.2852 41.6777 50.2109 41.6777H47.6094ZM81.1484 52.541H71.0234V63H65.75V37.4062H82.4141V41.6777H71.0234V48.2871H81.1484V52.541Z" fill="white"/>
</svg>
