<svg width="100" height="100" viewBox="0 0 100 100" fill="none" xmlns="http://www.w3.org/2000/svg">
<circle cx="50" cy="50" r="47.5" fill="#673AB7" stroke="black" stroke-width="5"/>
<path d="M21.9785 52.4814V62H16.4121V34.9844H26.9512C28.9798 34.9844 30.7611 35.3555 32.2949 36.0977C33.8411 36.8398 35.0286 37.8975 35.8574 39.2705C36.6862 40.6312 37.1006 42.1836 37.1006 43.9277C37.1006 46.5749 36.1914 48.6654 34.373 50.1992C32.5671 51.7207 30.0622 52.4814 26.8584 52.4814H21.9785ZM21.9785 47.9727H26.9512C28.4232 47.9727 29.5426 47.6263 30.3096 46.9336C31.0889 46.2409 31.4785 45.2513 31.4785 43.9648C31.4785 42.6413 31.0889 41.5713 30.3096 40.7549C29.5303 39.9385 28.4541 39.5179 27.0811 39.4932H21.9785V47.9727ZM40.9414 62V34.9844H49.2539C51.6289 34.9844 53.7503 35.5225 55.6182 36.5986C57.4984 37.6624 58.9642 39.1839 60.0156 41.1631C61.0671 43.1299 61.5928 45.3688 61.5928 47.8799V49.123C61.5928 51.6341 61.0732 53.8669 60.0342 55.8213C59.0075 57.7757 57.554 59.291 55.6738 60.3672C53.7936 61.4434 51.6722 61.9876 49.3096 62H40.9414ZM46.5078 39.4932V57.5283H49.1982C51.3753 57.5283 53.0391 56.8171 54.1895 55.3945C55.3398 53.972 55.9274 51.9372 55.9521 49.29V47.8613C55.9521 45.1152 55.3831 43.0371 54.2451 41.627C53.1071 40.2044 51.4434 39.4932 49.2539 39.4932H46.5078ZM81.9102 50.96H71.2227V62H65.6562V34.9844H83.2461V39.4932H71.2227V46.4697H81.9102V50.96Z" fill="white"/>
</svg>
